<svg width="281" height="116" viewBox="0 0 281 116" fill="none" xmlns="http://www.w3.org/2000/svg">
<g clip-path="url(#clip0_2_9)">
<path d="M3 27.6667C3 18.4619 10.4619 11 19.6667 11H53C80.6142 11 103 33.3858 103 61V61C103 88.6142 80.6142 111 53 111H19.6667C10.4619 111 3 103.538 3 94.3333V27.6667Z" fill="url(#paint0_linear_2_9)"/>
<path d="M111.736 111.768C109.112 111.768 107.288 111.256 106.264 110.232C105.24 109.208 104.728 107.96 104.728 106.488C104.728 104.632 105.208 102.648 106.168 100.536C107.192 98.424 108.152 96.632 109.048 95.16C110.072 93.624 111.448 92.024 113.176 90.36C114.904 88.696 116.792 87.288 118.84 86.136C120.888 84.984 122.872 84.408 124.792 84.408C126.456 84.408 127.608 84.824 128.248 85.656C128.888 86.424 129.208 87.352 129.208 88.44C129.208 90.424 128.6 92.056 127.384 93.336C126.232 94.616 124.792 95.672 123.064 96.504C121.336 97.272 119.672 97.912 118.072 98.424C117.112 98.68 115.992 98.936 114.712 99.192C113.432 99.448 112.216 99.576 111.064 99.576C110.616 100.728 110.264 101.848 110.008 102.936C109.752 104.024 109.624 105.016 109.624 105.912C109.624 107 109.88 107.896 110.392 108.6C110.968 109.304 111.896 109.656 113.176 109.656C113.688 109.656 114.296 109.592 115 109.464C115.704 109.336 116.472 109.144 117.304 108.888C119.224 108.248 121.112 107.224 122.968 105.816C124.824 104.408 126.52 102.904 128.056 101.304C129.656 99.64 130.872 98.264 131.704 97.176C131.896 97.368 131.992 97.592 131.992 97.848C131.992 98.168 131.768 98.68 131.32 99.384C130.04 101.176 128.376 103.032 126.328 104.952C124.28 106.872 122.008 108.504 119.512 109.848C117.016 111.128 114.424 111.768 111.736 111.768ZM111.832 97.656C112.664 97.72 113.592 97.72 114.616 97.656C115.704 97.528 116.76 97.304 117.784 96.984C120.408 96.216 122.296 95 123.448 93.336C124.664 91.608 125.272 90.072 125.272 88.728C125.272 87.96 125.112 87.32 124.792 86.808C124.472 86.296 123.96 86.04 123.256 86.04C121.4 86.04 119.736 86.744 118.264 88.152C116.792 89.496 115.512 91.064 114.424 92.856C113.336 94.648 112.472 96.248 111.832 97.656ZM138.042 111.576C137.146 111.576 136.378 111.256 135.738 110.616C135.098 109.976 134.778 108.856 134.778 107.256C134.778 105.848 134.874 104.184 135.066 102.264C135.322 100.344 135.674 98.392 136.122 96.408C136.57 94.36 137.082 92.568 137.658 91.032C136.57 92.632 135.354 94.296 134.01 96.024C132.666 97.688 131.546 99.096 130.65 100.248C130.458 100.504 130.298 100.632 130.17 100.632C130.042 100.632 129.978 100.472 129.978 100.152C129.978 99.64 130.138 99.16 130.458 98.712C131.802 96.856 133.306 94.744 134.97 92.376C136.698 90.008 138.17 87.864 139.386 85.944C140.09 85.816 140.922 85.624 141.882 85.368C142.906 85.112 143.642 84.76 144.09 84.312C144.41 84.12 144.602 84.024 144.666 84.024C144.858 84.024 144.954 84.152 144.954 84.408C144.954 84.6 144.858 84.824 144.666 85.08C144.09 85.912 143.45 87.192 142.746 88.92C142.106 90.648 141.434 92.568 140.73 94.68C140.09 96.792 139.546 98.872 139.098 100.92C138.714 102.904 138.522 104.6 138.522 106.008C138.522 107.032 138.682 107.768 139.002 108.216C139.322 108.6 139.738 108.792 140.25 108.792C140.954 108.792 141.786 108.44 142.746 107.736C143.77 107.032 144.634 106.296 145.338 105.528C146.234 104.568 147.226 103.288 148.314 101.688C149.466 100.088 150.522 98.392 151.482 96.6C152.506 94.808 153.274 93.176 153.786 91.704C154.17 90.68 154.426 89.816 154.554 89.112C154.682 88.344 154.746 87.736 154.746 87.288C154.746 86.52 154.65 85.976 154.458 85.656C154.266 85.336 154.106 85.144 153.978 85.08C153.594 84.952 153.402 84.792 153.402 84.6C153.402 84.472 153.53 84.376 153.786 84.312C154.042 84.184 154.298 84.184 154.554 84.312C155.386 84.568 156.218 84.952 157.05 85.464C157.882 85.912 158.298 86.808 158.298 88.152C158.298 88.472 158.266 88.856 158.202 89.304C158.138 89.688 158.01 90.136 157.818 90.648C157.434 91.672 156.634 93.112 155.418 94.968C154.266 96.824 152.922 98.776 151.386 100.824C149.85 102.872 148.314 104.728 146.778 106.392C145.242 108.056 143.898 109.24 142.746 109.944C141.978 110.392 141.178 110.776 140.346 111.096C139.514 111.416 138.746 111.576 138.042 111.576ZM178.933 113.784C175.541 113.784 172.277 113.272 169.141 112.248C166.069 111.288 163.573 109.656 161.653 107.352C159.733 105.048 158.773 101.944 158.773 98.04C158.773 93.88 159.573 89.816 161.173 85.848C162.773 81.88 164.917 78.2 167.605 74.808C170.293 71.352 173.301 68.376 176.629 65.88C179.573 63.64 182.965 61.816 186.805 60.408C190.709 59 194.581 58.296 198.421 58.296C200.021 58.296 201.525 58.424 202.933 58.68C204.341 58.872 205.781 59.32 207.253 60.024C208.533 60.6 209.557 61.336 210.325 62.232C211.093 63.064 211.477 64.024 211.477 65.112C211.477 65.24 211.477 65.4 211.477 65.592C211.477 65.784 211.445 65.944 211.381 66.072C211.125 67.096 210.517 68.28 209.557 69.624C208.661 70.904 207.957 72.248 207.445 73.656C207.381 73.912 207.029 74.136 206.389 74.328C205.749 74.456 205.493 74.392 205.621 74.136C206.133 73.304 206.517 72.28 206.773 71.064C207.093 69.848 207.253 68.632 207.253 67.416C207.253 66.52 207.157 65.688 206.965 64.92C206.837 64.088 206.581 63.384 206.197 62.808C205.557 61.656 204.565 60.856 203.221 60.408C201.877 59.96 200.437 59.736 198.901 59.736C197.429 59.736 195.957 59.896 194.485 60.216C193.013 60.536 191.733 60.888 190.645 61.272C186.933 62.616 183.381 64.728 179.989 67.608C176.981 70.232 174.293 73.272 171.925 76.728C169.621 80.184 167.797 83.736 166.453 87.384C165.109 91.032 164.437 94.52 164.437 97.848C164.437 101.24 165.173 103.928 166.645 105.912C168.117 107.896 170.037 109.304 172.405 110.136C174.773 110.968 177.333 111.384 180.085 111.384C182.517 111.384 184.917 111.128 187.285 110.616C189.717 110.104 191.925 109.464 193.909 108.696C197.301 107.416 200.341 105.848 203.029 103.992C205.781 102.136 208.341 99.736 210.709 96.792C211.029 96.472 211.253 96.312 211.381 96.312C211.573 96.312 211.669 96.44 211.669 96.696C211.669 97.208 211.413 97.816 210.901 98.52C208.725 101.464 206.261 103.928 203.509 105.912C200.757 107.896 197.813 109.528 194.677 110.808C192.565 111.64 190.101 112.344 187.285 112.92C184.533 113.496 181.749 113.784 178.933 113.784ZM210.55 111.192C209.526 111.192 208.598 111 207.766 110.616C206.998 110.168 206.614 109.24 206.614 107.832C206.614 105.592 207.19 103.352 208.342 101.112C209.494 98.808 210.678 96.792 211.894 95.064C212.982 93.592 214.198 92.216 215.542 90.936C216.95 89.592 218.454 88.44 220.054 87.48C221.078 86.84 222.454 86.168 224.182 85.464C225.974 84.696 227.478 84.312 228.694 84.312C229.718 84.312 230.614 84.6 231.382 85.176C232.15 85.688 232.534 86.648 232.534 88.056C232.534 90.232 231.958 92.472 230.806 94.776C229.718 97.016 228.566 99 227.35 100.728C226.774 101.496 226.198 102.232 225.622 102.936C225.046 103.576 224.406 104.248 223.702 104.952C226.07 104.952 228.246 104.28 230.23 102.936C232.214 101.528 233.942 99.832 235.414 97.848L235.606 97.656C235.798 97.656 235.894 97.848 235.894 98.232C235.894 98.68 235.766 99.096 235.51 99.48C234.23 101.272 232.63 102.872 230.71 104.28C228.79 105.624 226.614 106.296 224.182 106.296C223.926 106.296 223.67 106.296 223.414 106.296C223.158 106.296 222.902 106.264 222.646 106.2C219.062 109.528 215.03 111.192 210.55 111.192ZM213.046 109.56C213.942 109.56 214.902 109.24 215.926 108.6C217.014 107.96 217.846 107.352 218.422 106.776C219.51 105.688 220.502 104.536 221.398 103.32C222.294 102.04 223.126 100.76 223.894 99.48C224.79 97.944 225.686 96.12 226.582 94.008C227.478 91.896 227.926 89.912 227.926 88.056C227.926 86.584 227.414 85.848 226.39 85.848C225.558 85.848 224.534 86.2 223.318 86.904C222.166 87.608 221.302 88.248 220.726 88.824C218.55 91.064 216.726 93.496 215.254 96.12C214.422 97.592 213.526 99.32 212.566 101.304C211.606 103.288 211.126 105.112 211.126 106.776C211.126 107.032 211.126 107.288 211.126 107.544C211.19 107.736 211.254 107.96 211.318 108.216C211.574 109.112 212.15 109.56 213.046 109.56ZM234.996 112.44C234.74 112.44 234.74 112.152 234.996 111.576C235.316 111 235.604 110.36 235.86 109.656C236.18 108.952 236.5 108.184 236.82 107.352C237.46 105.816 238.164 104.088 238.932 102.168C239.7 100.248 240.436 98.392 241.14 96.6C241.844 94.744 242.452 93.176 242.964 91.896C243.54 90.552 243.924 89.688 244.116 89.304C243.22 90.264 242.132 91.48 240.852 92.952C239.636 94.36 238.484 95.736 237.396 97.08C236.308 98.424 235.476 99.48 234.9 100.248C234.708 100.504 234.548 100.632 234.42 100.632C234.292 100.632 234.228 100.472 234.228 100.152C234.228 99.64 234.388 99.16 234.708 98.712C235.924 97.176 237.268 95.448 238.74 93.528C240.276 91.608 241.652 89.848 242.868 88.248C244.084 86.584 244.852 85.496 245.172 84.984C245.876 84.856 246.9 84.664 248.244 84.408C249.652 84.152 250.612 83.8 251.124 83.352C251.316 83.16 251.508 83.064 251.7 83.064C251.828 83.064 251.892 83.192 251.892 83.448C251.956 83.64 251.892 83.864 251.7 84.12C251.316 84.568 250.644 85.624 249.684 87.288C248.788 88.888 247.796 90.68 246.708 92.664C245.684 94.648 244.724 96.44 243.828 98.04C244.852 96.824 245.844 95.672 246.804 94.584C247.828 93.496 248.532 92.728 248.916 92.28C249.684 91.512 250.74 90.552 252.084 89.4C253.428 88.248 254.836 87.192 256.308 86.232C257.78 85.272 259.06 84.728 260.148 84.6C260.404 84.536 260.628 84.504 260.82 84.504C261.012 84.504 261.204 84.504 261.396 84.504C262.612 84.504 263.22 84.952 263.22 85.848C263.22 86.232 263.124 86.68 262.932 87.192C262.74 87.704 262.484 88.216 262.164 88.728C261.78 89.496 261.14 90.712 260.244 92.376C259.348 93.976 258.548 95.448 257.844 96.792L262.356 92.28C263.124 91.512 264.18 90.552 265.524 89.4C266.868 88.248 268.276 87.192 269.748 86.232C271.22 85.272 272.5 84.728 273.588 84.6C273.844 84.536 274.068 84.504 274.26 84.504C274.516 84.504 274.708 84.504 274.836 84.504C276.244 84.504 276.948 85.016 276.948 86.04C276.948 86.808 276.532 87.832 275.7 89.112C275.252 89.816 274.548 91 273.588 92.664C272.628 94.328 271.636 96.152 270.612 98.136C269.652 100.056 268.82 101.848 268.116 103.512C267.412 105.176 267.06 106.392 267.06 107.16C267.06 108.056 267.508 108.504 268.404 108.504C269.236 108.504 270.292 108.024 271.572 107.064C272.916 106.04 274.26 104.824 275.604 103.416C277.012 102.008 278.228 100.664 279.252 99.384C279.7 98.872 280.116 98.36 280.5 97.848C280.948 97.272 281.204 96.952 281.268 96.888C281.396 97.016 281.46 97.24 281.46 97.56C281.46 98.008 281.3 98.456 280.98 98.904C280.724 99.288 280.468 99.64 280.212 99.96C278.996 101.56 277.588 103.224 275.988 104.952C274.452 106.68 272.756 108.152 270.9 109.368C269.044 110.52 267.06 111.192 264.948 111.384C264.308 111.448 263.668 111.32 263.028 111C262.388 110.68 262.068 110.168 262.068 109.464C262.068 108.568 262.292 107.512 262.74 106.296C263.252 105.08 263.796 103.864 264.372 102.648C265.012 101.432 265.492 100.44 265.812 99.672C266.964 97.432 268.02 95.32 268.98 93.336C269.94 91.352 270.612 89.944 270.996 89.112C271.188 88.728 271.284 88.408 271.284 88.152C271.284 87.704 270.932 87.672 270.228 88.056C269.524 88.44 268.66 89.016 267.636 89.784C266.676 90.552 265.78 91.32 264.948 92.088C264.116 92.792 263.572 93.272 263.316 93.528C262.228 94.616 260.916 96.088 259.38 97.944C257.908 99.8 256.532 101.752 255.252 103.8C253.972 105.784 253.076 107.64 252.564 109.368C251.924 109.944 251.316 110.232 250.74 110.232C250.292 110.232 249.908 110.072 249.588 109.752C249.332 109.432 249.204 109.048 249.204 108.6C249.204 107.32 249.588 105.816 250.356 104.088C251.188 102.296 251.86 100.824 252.372 99.672C253.524 97.432 254.58 95.32 255.54 93.336C256.5 91.352 257.172 89.944 257.556 89.112C257.748 88.728 257.844 88.408 257.844 88.152C257.844 87.704 257.492 87.672 256.788 88.056C256.084 88.44 255.22 89.016 254.196 89.784C253.236 90.552 252.34 91.32 251.508 92.088C250.676 92.792 250.132 93.272 249.876 93.528C248.34 95.128 246.9 96.76 245.556 98.424C244.276 100.088 243.188 101.88 242.292 103.8C241.78 104.952 241.236 106.232 240.66 107.64C240.084 109.048 239.604 110.232 239.22 111.192C238.388 111.256 237.556 111.48 236.724 111.864C235.892 112.248 235.316 112.44 234.996 112.44Z" fill="white"/>
</g>
<defs>
<linearGradient id="paint0_linear_2_9" x1="3" y1="61" x2="103" y2="61" gradientUnits="userSpaceOnUse">
<stop stop-color="#2B67FE"/>
<stop stop-color="#2B67FE"/>
<stop offset="0.21" stop-color="#1D5DFF" stop-opacity="0.74"/>
<stop offset="0.52" stop-color="#0F3FB8"/>
<stop offset="0.78" stop-color="#0F2661"/>
<stop offset="1" stop-color="#0C152B"/>
</linearGradient>
<clipPath id="clip0_2_9">
<rect width="281" height="116" fill="white"/>
</clipPath>
</defs>
</svg>
